<svg width="146" height="79" viewBox="0 0 146 79" fill="none" xmlns="http://www.w3.org/2000/svg">
<path d="M17.8289 20.0533C17.8289 9.25431 26.5832 0.5 37.3822 0.5H122.986C132.407 0.5 137.053 11.9551 130.293 18.5174C129.881 18.9171 129.437 19.2823 128.966 19.6094L127.966 20.3034C124.305 22.8434 120.038 24.3717 115.597 24.7338L103.183 25.7461H81.4978C72.9224 25.7461 64.5125 28.1075 57.1906 32.5715C54.83 34.0106 52.6019 35.6566 50.5326 37.4899L45.4156 42.0232C44.7048 42.6529 44.0541 43.3474 43.4718 44.0976C35.1037 54.8788 17.8289 48.9613 17.8289 35.3136V20.0533Z" stroke="white"/>
<path d="M133.246 56.5766C133.246 67.3756 124.492 76.1299 113.693 76.1299H28.089C18.6679 76.1299 14.0222 64.6748 20.7819 58.1125C21.1936 57.7128 21.6374 57.3476 22.1088 57.0205L23.1091 56.3264C26.7699 53.7865 31.0365 52.2581 35.4774 51.896L47.8914 50.8838H69.5769C78.1523 50.8838 86.5622 48.5223 93.8842 44.0584C96.2447 42.6193 98.4728 40.9733 100.542 39.14L105.659 34.6067C106.37 33.9769 107.021 33.2825 107.603 32.5323C115.971 21.7511 133.246 27.6685 133.246 41.3163V56.5766Z" stroke="white"/>
</svg>
